<?xml version="1.0" encoding="UTF-8"?>
<svg id="Layer_2" data-name="Layer 2" xmlns="http://www.w3.org/2000/svg" xmlns:xlink="http://www.w3.org/1999/xlink" viewBox="0 0 1371.06 1274.34">
  <defs>
    <style>
      .cls-1 {
        fill: url(#linear-gradient);
        fill-rule: evenodd;
        stroke: #ededed;
        stroke-miterlimit: 10;
        stroke-width: .25px;
      }
    </style>
    <linearGradient id="linear-gradient" x1=".95" y1="637.17" x2="1370.11" y2="637.17" gradientUnits="userSpaceOnUse">
      <stop offset="0" stop-color="#c49a6c"/>
      <stop offset=".33" stop-color="#8b5424"/>
      <stop offset=".73" stop-color="#cc8d37"/>
      <stop offset="1" stop-color="#c49a6c"/>
    </linearGradient>
  </defs>
  <g id="Layer_1-2" data-name="Layer 1">
    <path class="cls-1" d="m1260.75,746.41v.12-.12h0Zm-453.04,147.98c9.8-9.92,15.94-23.5,15.94-38.62,0-30.24-24.45-54.68-54.56-54.68-15.12,0-28.82,6.14-38.74,16.06-9.8,9.92-15.94,23.5-15.94,38.62,0,30.11,24.45,54.56,54.68,54.56,15,0,28.7-6.02,38.62-15.95h0Zm-93.3-175.26v1.89-296.2l-.12-1.3c-.35-4.02-.35-7.32.12-11.1.12-.71.24-1.53.36-2.24,2.12-13.7,9.33-25.98,20.08-34.49,9.8-7.68,21.5-11.69,33.89-11.69h.35c15,0,28.58,6.02,38.5,15.83h0l.12.12,15.94,12.76,27.4,21.85,73.34,58.7,35.9,28.82,27.28,21.85,50.55,40.39,3.9,3.19,4.25-3.43,50.67-40.51,27.28-21.85,35.55-28.46,3.07-2.36,70.51-56.45.12-.12,27.28-21.85,15.83-12.64.24.12c.71-.71,1.54-1.42,2.24-2.13h.12l4.49-3.66h0c8.98-6.38,19.96-10.16,31.77-10.16,30.23,0,54.68,24.45,54.68,54.68v437.1c0,30.11-24.45,54.56-54.68,54.56-15.12,0-28.7-6.02-38.62-15.95-9.92-9.92-16.06-23.5-16.06-38.62v-109.37h0v-214.12l-.12.12-27.16,21.73-34.84,27.87-.71.59-.24.12-2.71,2.24-70.62,56.45-.12.12-19.25,15.36-8.03,6.49-18.78,14.88-3.78,3.07c-6.5,4.84-14.17,8.15-22.56,9.68-3.07.47-6.26.83-9.57.83-1.53,0-3.19-.12-4.72-.24l-4.02-.47-.94-.12h-.35c-8.27-1.54-15.95-4.84-22.56-9.68l-7.09-5.67-15-12.05-8.27-6.62-19.02-15.23-.24-.12-70.74-56.57-2.83-2.36-.24-.12-.59-.59-34.6-27.63-27.16-21.73-.24-.12v186.6c0,30.24-24.45,54.68-54.56,54.68-15.23,0-28.93-6.26-38.85-16.18-7.56-7.68-12.87-17.48-14.88-28.46h0c-.47-2.01-.95-5.2-.95-8.15v-1.89Zm-430.6-398.24C371.55,155.78,545.16,43.35,745.11,43.35c162.98,0,308.48,74.64,404.27,191.56C1046.74,92.72,879.51.12,690.67.12,489.3.12,312.62,105.47,212.47,263.96L.95,320.89h282.86Zm1086.31,0h-282.86c-81.14-128.38-224.39-213.65-387.49-213.65-143.02,0-270.69,65.55-354.66,168.18,89.99-124.83,236.8-206.09,402.49-206.09s298.56,73.81,389.38,188.84l233.13,62.71ZM283.8,953.57c87.75,165.11,261.36,277.54,461.31,277.54,162.98,0,308.48-74.64,404.27-191.68-102.63,142.19-269.87,234.78-458.71,234.78-201.36,0-378.04-105.23-478.2-263.84L.95,953.57h282.86Zm1086.31,0h-282.86c-81.14,128.38-224.39,213.53-387.49,213.53-143.02,0-270.69-65.43-354.66-168.18,89.99,124.83,236.8,206.09,402.49,206.09s298.56-73.81,389.38-188.73l233.13-62.71ZM17.6,456.83c-2.6,5.2-4.72,10.51-6.73,15.95-6.02,17.12-9.33,35.55-9.33,54.68v191.68c0,3.31.36,6.61.95,9.8,4.61,25.51,26.93,44.76,53.74,44.76,30.12,0,54.68-24.45,54.68-54.56v-27.75h382.77-.35c9.92,0,19.25,2.71,27.28,7.32,16.3,9.45,27.28,27.04,27.4,47.24v.23c-.12,10.04-2.83,19.49-7.56,27.52-4.84,8.15-11.69,14.88-19.84,19.61-7.91,4.72-17.24,7.32-27.16,7.32H192.75c-2.13,0-4.37.12-6.5.47-27.04,3.19-48.07,26.21-48.07,54.21s19.25,49.02,44.64,53.74c3.19.59,6.61.94,9.92.94h300.81c9.21-.12,18.31-.83,27.05-2.36,9.45-1.54,18.54-3.9,27.4-6.97,5.43-2.01,10.75-4.25,15.95-6.73,33.78-16.06,61.18-43.46,77.36-77.24,2.36-5.08,4.61-10.27,6.5-15.59,0-.12.12-.36.12-.47,3.07-8.62,5.43-17.6,6.97-26.93,1.54-8.86,2.36-18.07,2.36-27.52v-.35c0-19.13-3.31-37.44-9.33-54.44-2.01-5.44-4.13-10.87-6.62-16.06-6.85-14.05-15.47-27.05-25.86-38.62,10.39-11.46,19.01-24.45,25.86-38.62,2.48-5.2,4.61-10.51,6.62-15.94,6.02-17.01,9.33-35.31,9.33-54.44v-.47c0-19.01-3.31-37.32-9.33-54.44-2.01-5.43-4.13-10.75-6.62-15.95-16.18-33.78-43.58-61.18-77.36-77.36-5.2-2.48-10.51-4.61-15.95-6.62-8.86-3.07-17.95-5.43-27.4-7.09-8.86-1.42-17.95-2.24-27.28-2.24H165.46c-9.33,0-18.43.83-27.28,2.24-9.45,1.65-18.54,4.02-27.28,7.09-5.55,2.01-10.87,4.13-16.06,6.62-33.78,16.18-61.18,43.58-77.24,77.36h0Zm93.3,398.48c0-27.99-21.02-51.02-48.07-54.21h-13.23c-12.4,1.42-23.62,7.2-32.01,15.59-9.92,9.92-16.06,23.5-16.06,38.62,0,30.12,24.45,54.68,54.68,54.68,15.12,0,28.7-6.14,38.62-16.06,9.92-9.8,16.06-23.5,16.06-38.62h0Zm382.42-273.17H110.9v-54.68c0-20.19,10.98-37.91,27.28-47.36,8.03-4.61,17.36-7.32,27.28-7.32h327.85c9.92,0,19.25,2.71,27.28,7.32,16.3,9.45,27.28,27.04,27.4,47.24v.24c-.12,20.2-11.1,37.79-27.4,47.24-8.03,4.61-17.36,7.32-27.28,7.32h27.28-27.28Z"/>
  </g>
</svg>